<?xml version="1.0" encoding="UTF-8"?>
<svg viewBox="0 0 216 216" xmlns="http://www.w3.org/2000/svg">
 <path d="m153.5 200.52c-16.414-4.5935-26.864-8.5396-41-15.481-25.95-12.744-50.501-31.571-68.369-52.43-14.466-16.888-23.652-30.567-32.874-48.955-5.1141-10.197-5.6345-11.853-6.0422-19.223-0.41863-7.5681-0.23263-8.5233 3.0183-15.5 7.084-15.203 18.154-26.256 32.625-32.574 8.6864-3.7926 11.205-4.0972 13.322-1.6111 1.9577 2.2992 19.82 51.685 19.82 54.798 0 2.8858-1.8995 4.2003-12.355 8.5494-8.0391 3.3442-10.764 6.1225-9.0062 9.1817 0.47343 0.82373 20.644 17.523 44.823 37.109 28.246 22.88 44.754 35.612 46.179 35.612 3.1397 0 5.3574-2.6105 5.3703-6.3214 0.020096-5.8064 1.2429-10.744 2.876-11.614 1.7882-0.95194 5.5869-1.3869 31.113-3.5622 24.364-2.0764 26.622-2.017 28.407 0.74722 0.7991 1.2375 1.7592 5.4268 2.1335 9.3095 1.6221 16.826-5.0821 32.64-19.272 45.459-12.163 10.988-20.181 12.268-40.768 6.5063z"/>
 <path d="m153.5 200.52c-33.351-9.3338-61.284-24.036-87-45.792-22.522-19.054-41.215-43.104-55.243-71.075-5.1141-10.197-5.6345-11.853-6.0422-19.223-0.41863-7.5681-0.23263-8.5233 3.0183-15.5 7.1422-15.328 18.794-26.799 33.447-32.93 8.2796-3.4643 10.434-3.6805 12.5-1.2544 1.9577 2.2992 19.82 51.685 19.82 54.798 0 2.8858-1.8995 4.2003-12.355 8.5494-8.0391 3.3442-10.764 6.1225-9.0062 9.1817 0.47343 0.82373 20.644 17.523 44.823 37.109 28.246 22.88 44.754 35.612 46.179 35.612 3.2692 0 5.3585-2.6565 5.3648-6.8214 0.00824-5.4344 1.8176-10.99 3.7755-11.593 2.2685-0.6982 46.939-4.586 52.693-4.586 6.0301 0 7.509 2.3344 8.0166 12.654 0.35832 7.2848-0.72812 14.807-3.342 23.138-1.5339 4.8892-9.3283 15.308-15.88 21.226-12.163 10.988-20.181 12.268-40.768 6.5063z"/>
 <path d="m153.5 200.52c-16.136-4.5159-26.668-8.4974-41-15.5-44.691-21.835-82.595-60.665-103.5-106.02-2.766-6.0025-3.5314-9.0398-3.8335-15.212-0.35908-7.3362-0.18047-8.1155 3.6671-16 7.2575-14.872 18.55-25.8 32.844-31.783 3.9493-1.653 7.8369-3.0054 8.6392-3.0054 3.1074 0 5.5966 3.9307 9.4991 15 2.2299 6.325 6.3329 17.737 9.1178 25.36 5.2664 14.415 5.9136 17.709 3.8134 19.405-0.6875 0.55518-5.2424 2.7345-10.122 4.843-9.0217 3.8983-11.775 6.5642-9.9889 9.6719 0.47343 0.82373 20.644 17.523 44.823 37.109 45.731 37.045 47.92 38.504 50.503 33.677 0.56935-1.0638 1.0377-3.4263 1.0408-5.25 0.008591-5.1083 1.8694-10.643 3.7755-11.23 2.2685-0.6982 46.939-4.586 52.693-4.586 3.5615 0 4.7694 0.4614 5.8908 2.25 3.2766 5.2261 2.79 21.563-0.97406 32.703-3.3592 9.9418-16.951 24.93-26.89 29.652-7.164 3.4038-14.985 3.1222-30-1.08z"/>
 <path d="m164.5 203.5c-0.55-0.187-6.175-1.7713-12.5-3.5207-61.158-16.916-112.55-59.346-140.38-115.91-5.6373-11.456-6.1457-13.044-6.4721-20.212-0.33659-7.3933-0.15359-8.19 3.6904-16.067 6.9251-14.191 16.923-24.23 30.658-30.786 7.9653-3.8015 11.49-4.5086 13.829-2.7739 1.9599 1.4536 20.676 51.533 20.676 55.324 0 2.9249-1.0196 3.646-10.991 7.7734-9.0152 3.7315-11.906 6.4102-10.399 9.6363 0.48973 1.0487 11.015 10.1 23.39 20.115s26.71 21.632 31.857 25.816c30.554 24.841 33.59 27.107 36.314 27.107 3.2329 0 4.8271-2.3687 4.8352-7.1843 0.008575-5.1055 1.8688-10.642 3.7755-11.237 2.1512-0.67168 47.211-4.5623 52.946-4.5715 6.2536-0.010071 7.5506 2.5126 7.6026 14.788 0.072815 17.195-5.5759 29.866-18.632 41.795-8.4191 7.692-14.396 10.41-22.697 10.322-3.575-0.03804-6.95-0.22217-7.5-0.40918z"/>
 <path d="m159.39 202c-22.189-5.2602-50.521-17.642-70.391-30.762-33.047-21.821-59.2-51.228-77.097-86.693l-6.4026-12.687v-8.6787c0-7.8578 0.32255-9.332 3.4101-15.586 3.2426-6.5683 10.129-15.988 14.548-19.9 4.5168-3.9981 15.378-10.533 20.909-12.581 6.1668-2.2829 9.0545-2.089 10.511 0.70558 2.0432 3.9191 19.121 52.076 19.121 53.919 0 2.7067-1.1454 3.5058-10.5 7.3249-9.6604 3.944-11.989 5.854-11.161 9.1543 0.40714 1.6221 14.532 13.698 43.675 37.341 23.69 19.219 44.339 35.481 45.886 36.138 4.6824 1.9882 6.6754-0.25116 7.4317-8.3504 0.4207-4.5051 1.2189-7.3185 2.399-8.4562 1.4083-1.3576 6.0467-2.0719 22.769-3.5066 11.55-0.99095 24.365-1.8196 28.477-1.8415 7.3013-0.038818 7.5107 0.029419 8.8952 2.8993 2.2124 4.5861 1.785 20.562-0.7659 28.633-3.7927 12-15.766 26.167-27.079 32.04-5.8901 3.0577-14.217 3.3577-24.637 0.88748z"/>
 <path d="m156.5 201.02c-61.634-15.956-112.66-56.361-142.71-113.02-10.573-19.932-11.243-27.561-3.6916-42.075 5.1063-9.8149 14.169-19.898 22.274-24.78 7.5876-4.5708 17.307-8.3816 19.556-7.6678 1.9916 0.6321 4.7109 6.2947 9.1353 19.022 1.5295 4.4 5.0775 14.3 7.8845 22 2.9162 7.9994 4.8822 14.915 4.587 16.136-0.38464 1.5899-3.0801 3.2301-10.55 6.4196-7.8516 3.3526-10.16 4.7904-10.618 6.6123-0.32138 1.2805-0.34574 2.9499-0.054131 3.7098 0.29161 0.75991 5.8526 5.6857 12.358 10.946 6.5052 5.2605 21.053 17.043 32.328 26.184 39.115 31.712 45.19 36.492 46.37 36.492 0.65201 0 2.1392-0.66804 3.3049-1.4845 1.6708-1.1703 2.2696-2.9793 2.8287-8.5465 0.57108-5.6865 1.1268-7.3211 2.853-8.3925 3.098-1.9226 54.744-6.1286 57.453-4.6789 3.6823 1.9707 4.5448 16.303 1.7253 28.67-1.8795 8.2438-6.8485 16.456-14.741 24.363-13.646 13.671-20.151 15.299-40.293 10.085z"/>
 <path d="m163 202.44c-46.542-10.053-91.191-37.467-123.68-75.937-14.415-17.07-32.937-50.068-34.001-60.575-1.1132-10.994 5.2169-24.414 17.179-36.42 8.2885-8.3187 19.863-14.777 26.736-14.918 5.1616-0.10574 5.1394-0.14315 13.31 22.429 9.6883 26.763 11.477 32.336 10.93 34.057-0.30949 0.97508-4.5908 3.3467-10.254 5.6802-7.8794 3.2467-9.905 4.513-10.684 6.6792-0.63527 1.7659-0.60931 3.249 0.076492 4.3702 1.0943 1.7891 80.215 66.559 86.608 70.9 6.7419 4.5772 10.754 0.94078 10.771-9.7614 0.010391-6.6243 0.96869-7.0766 18.095-8.5412 8.4756-0.72473 20.975-1.8341 27.776-2.4652 15.715-1.4582 16.096-1.2053 16.849 11.196 1.0661 17.559-3.3312 28.662-16.623 41.972-6.8632 6.8724-9.7556 9.0348-14.379 10.75-6.6185 2.4553-9.616 2.5489-18.712 0.58406z"/>
 <path d="m160.44 197.53c-28.265-6.573-54.987-17.825-80.408-36.946-15.346-11.543-36.756-33.007-48.286-51.007-5.912-9.229-18.532-29.544-20.209-34.709-3.5183-10.838-3.8541-21.652 6.1292-35.548 8.3468-11.618 29.301-23.996 32.976-19.118 1.1289 1.4981 4.062 5.7581 13.239 30.917 7.6695 21.026 9.6787 17.371 1.3217 20.258-9.2737 3.2037-20.132 8.083-20.451 10.841-0.4199 3.6337 11.365 16.611 20.423 23.958 29.697 24.089 65.557 52.926 70.732 57.09 3.366 2.708 7.0208 1.893 11.151 1.893 4.1303 0 5.931-4.3371 6.089-12.084 0.12799-6.29 1.6729-7.0909 12.912-8.047 45.444-3.868 39.498-4.223 41.311-2.42 2.685 2.673 3.241 12.461 1.118 22.284-2.079 9.621-7.318 16.919-16.032 24.805-10.77 9.747-17.116 11.299-32.017 7.8343z" fill="#fff" stroke-linejoin="bevel" stroke-width="47"/>
</svg>
