<?xml version="1.0" encoding="UTF-8"?>
<svg version="1.1" viewBox="0 0 64 64" xmlns="http://www.w3.org/2000/svg">
 <g fill="#555753">
  <g stroke-width="0">
   <rect x="16.508" y="18.211" width="34.162" height="13.067" rx="2.1566" ry="2.1566"/>
   <path transform="matrix(.31137 0 0 .21058 -6.3617 .26947)" d="m125.73 62.865a21.088 22.281 0 1 1 -42.175 0 21.088 22.281 0 1 1 42.175 0z"/>
   <path transform="matrix(.29036 0 0 .20679 10.036 .56998)" d="m125.73 62.865a21.088 22.281 0 1 1 -42.175 0 21.088 22.281 0 1 1 42.175 0z"/>
   <path d="m50.895 21.79 7.6416-1.7899 0.2248 10.024-7.8663-1.9689v-6.2648z"/>
   <rect x="10.76" y="18.773" width="5.3941" height="3.9379" rx=".75031" ry=".75031"/>
  </g>
  <path d="m29.677 31.815-14.453 24.786 1.3549 0.0011 16.937-23.939 14.227 24.107 1.5163-0.194-11.679-24.763-7.9039 0.0011v2e-4z" fill-rule="evenodd" stroke="#000" stroke-width=".074"/>
 </g>
 <g stroke-width="0">
  <g fill="#fff" stroke="#171b29" stroke-linejoin="round">
   <path transform="matrix(.28244 0 0 .34402 -3.9443 -7.7465)" d="m115.38 61.671a9.947 6.7639 0 1 1 -19.894 0 9.947 6.7639 0 1 1 19.894 0z"/>
   <path transform="matrix(.32763 0 0 .35725 6.157 -8.616)" d="m115.38 61.671a9.947 6.7639 0 1 1 -19.894 0 9.947 6.7639 0 1 1 19.894 0z"/>
  </g>
 </g>
</svg>
